<?xml version="1.0" encoding="utf-8"?>
<!-- Generator: Adobe Illustrator 16.0.0, SVG Export Plug-In . SVG Version: 6.00 Build 0)  -->
<!DOCTYPE svg PUBLIC "-//W3C//DTD SVG 1.1//EN" "http://www.w3.org/Graphics/SVG/1.1/DTD/svg11.dtd">
<svg version="1.1" id="Layer_1" xmlns="http://www.w3.org/2000/svg" xmlns:xlink="http://www.w3.org/1999/xlink" x="0px" y="0px"
	 width="768px" height="525px" viewBox="-34 -2.5 768 525" enable-background="new -34 -2.5 768 525" xml:space="preserve">
<rect x="-34" y="-2.5" fill="#E1E1E1" width="768" height="525"/>
<g>
	<path fill="#B4B4B4" d="M385.599,237.75h-17.8v-5.933c0-4.916-3.981-8.899-8.897-8.899h-17.798c-4.915,0-8.898,3.985-8.898,8.899
		v5.933h-0.92l16.329,9.054c0.783-0.099,1.58-0.154,2.39-0.154c7.751,0,14.435,4.58,17.496,11.178l27.002,14.968v-26.146
		C394.498,241.735,390.515,237.75,385.599,237.75z"/>
	<path fill="#B4B4B4" d="M314.403,297.08h71.195c2.252,0,4.31-0.838,5.875-2.219l-27.755-15.385
		c-3.495,3.539-8.352,5.734-13.718,5.734c-10.65,0-19.282-8.633-19.282-19.281c0-1.535,0.186-3.027,0.524-4.459l-25.739-14.27
		v40.977C305.503,293.099,309.488,297.08,314.403,297.08z"/>
	<path fill="#B4B4B4" d="M350,276.312c1.953,0,3.779-0.543,5.339-1.48l-15.717-8.715C339.723,271.758,344.338,276.312,350,276.312z"
		/>
	<path fill="#B4B4B4" d="M391.781,203.819c-12.025-8.932-26.854-13.848-41.745-13.848c-6.507,0-13.011,0.918-19.329,2.729
		c-15.452,4.43-29.007,14.128-38.167,27.306c-2.709,3.896-5.03,8.084-6.901,12.448c-6.323,14.752-7.366,31.385-2.937,46.838
		c4.273,14.91,13.098,27.664,25.516,36.888c12.027,8.93,26.853,13.848,41.746,13.848c6.507,0,13.011-0.92,19.331-2.729
		c15.451-4.43,29.004-14.127,38.166-27.305c2.709-3.896,5.029-8.086,6.9-12.447c6.322-14.752,7.365-31.386,2.938-46.838
		C413.023,225.795,404.201,213.041,391.781,203.819z M399.209,296.188c-8.067,10.996-19.264,18.795-32.367,22.554
		c-5.491,1.573-11.147,2.373-16.813,2.373c-0.001,0-0.002,0-0.004,0c-27.128-0.003-51.293-18.207-58.766-44.275
		c-3.757-13.104-3.073-26.729,1.979-39.399l1.248-3.129l106.716,59.165L399.209,296.188z M406.767,282.562l-1.248,3.129
		l-106.719-59.164l1.993-2.717c8.071-10.998,19.263-18.797,32.368-22.555c5.492-1.574,11.149-2.372,16.818-2.372
		c27.127,0,51.292,18.207,58.766,44.274C412.5,256.264,411.814,269.89,406.767,282.562z"/>
</g>
</svg>
