<?xml version="1.0" encoding="utf-8"?>
<!-- Generator: Adobe Illustrator 22.0.1, SVG Export Plug-In . SVG Version: 6.00 Build 0)  -->
<svg version="1.1" id="Camada_1" xmlns="http://www.w3.org/2000/svg" xmlns:xlink="http://www.w3.org/1999/xlink" x="0px" y="0px"
	 viewBox="0 0 128 193" style="enable-background:new 0 0 128 193;" xml:space="preserve">
<style type="text/css">
	.st0{fill:#E1E1E1;}
	.st1{fill:#B4B4B4;}
</style>
<rect class="st0" width="128" height="193"/>
<g>
	<path class="st1" d="M79.9,86.7h-8.1V84c0-2.2-1.8-4-4-4h-8.1c-2.2,0-4,1.8-4,4v2.7h-0.4l7.4,4.1c0.4,0,0.7-0.1,1.1-0.1
		c3.5,0,6.5,2.1,7.9,5.1l12.2,6.8V90.7C83.9,88.5,82.1,86.7,79.9,86.7z"/>
	<path class="st1" d="M47.6,113.6h32.3c1,0,2-0.4,2.7-1l-12.6-7c-1.6,1.6-3.8,2.6-6.2,2.6c-4.8,0-8.7-3.9-8.7-8.7
		c0-0.7,0.1-1.4,0.2-2L43.6,91v18.6C43.6,111.8,45.4,113.6,47.6,113.6z"/>
	<path class="st1" d="M63.8,104.2c0.9,0,1.7-0.2,2.4-0.7l-7.1-4C59.1,102.1,61.2,104.2,63.8,104.2z"/>
	<path class="st1" d="M82.7,71.3C77.2,67.2,70.5,65,63.8,65c-3,0-5.9,0.4-8.8,1.2c-7,2-13.2,6.4-17.3,12.4c-1.2,1.8-2.3,3.7-3.1,5.6
		c-2.9,6.7-3.3,14.2-1.3,21.2c1.9,6.8,5.9,12.5,11.6,16.7c5.5,4.1,12.2,6.3,18.9,6.3c3,0,5.9-0.4,8.8-1.2c7-2,13.2-6.4,17.3-12.4
		c1.2-1.8,2.3-3.7,3.1-5.6c2.9-6.7,3.3-14.2,1.3-21.2C92.3,81.2,88.3,75.5,82.7,71.3z M86.1,113.2c-3.7,5-8.7,8.5-14.7,10.2
		c-2.5,0.7-5.1,1.1-7.6,1.1c0,0,0,0,0,0c-12.3,0-23.3-8.3-26.7-20.1c-1.7-5.9-1.4-12.1,0.9-17.9l0.6-1.4L87,111.9L86.1,113.2z
		 M89.5,107l-0.6,1.4L40.5,81.6l0.9-1.2c3.7-5,8.7-8.5,14.7-10.2c2.5-0.7,5.1-1.1,7.6-1.1C76,69,87,77.3,90.4,89.1
		C92.1,95.1,91.8,101.3,89.5,107z"/>
</g>
</svg>
